<?xml version="1.0" encoding="UTF-8"?>
<svg id="Layer_1" data-name="Layer 1" xmlns="http://www.w3.org/2000/svg" viewBox="0 0 2311.17 1508.63">
  <defs>
    <style>
      .cls-1, .cls-2 {
        letter-spacing: 0em;
      }

      .cls-3 {
        letter-spacing: -.05em;
      }

      .cls-4 {
        letter-spacing: 0em;
      }

      .cls-4, .cls-2, .cls-5 {
        fill: #c6332d;
      }

      .cls-6 {
        font-family: Figtree-Bold, Figtree;
        font-size: 226.16px;
        font-weight: 700;
      }

      .cls-7 {
        letter-spacing: -.03em;
      }

      .cls-8 {
        letter-spacing: -.05em;
      }

      .cls-9 {
        letter-spacing: -.07em;
      }
    </style>
  </defs>
  <rect x="1142.69" y="424.32" width="198.12" height="719.91" rx="99.06" ry="99.06"/>
  <path class="cls-5" d="M506.66,992.74c-10.5-11.4-21.09-13.18-31.11-26.79-11.3-15.35-15.08-35.08-16.58-53.8-5.88-73.53,4.38-154.42,0-228.72h-156.75v235.12c0,7.1-18.76,35.37-25.84,41.34-48.06,40.57-114.54,12.5-120.48-48.56-6.26-64.43-3.06-226.43-3.06-226.43,0,0-24.06-303.15,142.75-360.89,50.93-17.63,136.78-31.3,217.79,28.38,15.04,11.08,35.29,11.67,51.01,1.58,46.19-29.66,92.29-42.49,152.23-38.54,107.16,7.05,191.76,97.3,199.74,203.32,4.06,53.97,3.09,110.09,1.45,166.52l160.62.3s-1.01-185.62-15.82-242.69c-51.61-198.98-265.99-333.43-467.5-274.25-15.08,4.43-38.41,18.02-51.36,19.15-19.48,1.69-51.27-17.19-73.16-22.97C267.01,111.06,50.2,218.14,9.42,465.8-2.99,541.13.25,607.6.74,685.25c.52,81.93-3.04,195.44,3.87,275,3.74,43.01,41.24,97.29,73.65,124.68,84.53,71.44,212.78,70.28,299.18,2.3,39.64,35.22,91.73,59.29,145.51,56.82.66-16.75-14.78-23.64-22.43-39.94-19.42-41.34-11.75-71.54,6.14-111.38Z"/>
  <path d="M917.81,685.25v210.31c-1.92,62.72-58.83,102.29-123.75,72.04-14.51-6.76-30.4-26.38-30.4-43.18v-238.32h-156.74v238.32c0,14.14-8.07,32.79-16.54,44.23-19.86,26.83-52.66,24.78-63.53,61.22-10.76,36.08-2.5,74.18,31.06,93.91,48.89,28.73,93.57-4.46,131.17-34.11,117.1,88.24,282.05,51.52,356.14-78.84,45.37-79.84,33.11-324.33,33.22-325.29l-160.62-.3Z"/>
  <path d="M1839.41,436.28h376.93c51.82,0,93.83-42.01,93.83-93.83v-4.81c0-51.82-42.01-93.83-93.83-93.83h-547.75c-144.39,0-261.44,117.05-261.44,261.44v4.81c0,144.39,117.05,261.44,261.44,261.44h209.32c51.82,0,93.83,42.01,93.83,93.83h0c0,51.82-42.01,93.83-93.83,93.83h-376.93c-51.82,0-93.83,42.01-93.83,93.83h0c0,51.82,42.01,93.83,93.83,93.83h547.75c144.39,0,261.44-117.05,261.44-261.44h0c0-144.39-117.05-261.44-261.44-261.44h-209.32c-51.82,0-93.83-42.01-93.83-93.83h0c0-51.82,42.01-93.83,93.83-93.83Z"/>
  <path class="cls-5" d="M1241.94,0c-92.13,0-166.81,74.68-166.81,166.81s74.68,166.81,166.81,166.81,166.81-74.68,166.81-166.81S1334.06,0,1241.94,0ZM1241.13,291.92c-68.65,0-124.31-55.65-124.31-124.31s55.65-124.31,124.31-124.31,124.31,55.65,124.31,124.31-55.65,124.31-124.31,124.31Z"/>
  <text class="cls-6" transform="translate(5.29 1458.88)"><tspan class="cls-2" x="0" y="0">MIS</tspan><tspan class="cls-4" x="391.7" y="0"> </tspan><tspan class="cls-1" x="445.52" y="0">D</tspan><tspan class="cls-3" x="602.25" y="0">A</tspan><tspan class="cls-9" x="751.29" y="0">T</tspan><tspan class="cls-1" x="867.31" y="0">A</tspan><tspan x="1027.2" y="0"> </tspan><tspan class="cls-1" x="1081.02" y="0">A</tspan><tspan class="cls-7" x="1240.91" y="0">U</tspan><tspan class="cls-1" x="1394.02" y="0">TOM</tspan><tspan class="cls-8" x="1893.15" y="0">A</tspan><tspan class="cls-1" x="2042.19" y="0">TE</tspan></text>
</svg>