<?xml version="1.0" encoding="UTF-8"?>
<svg width="40" height="40" viewBox="0 0 40 40" fill="none" xmlns="http://www.w3.org/2000/svg">
  <path d="M0 0H40V1H0V0Z" fill="url(#paint0_vertical)" fill-opacity="0.1"/>
  <path d="M0 10H40V11H0V10Z" fill="url(#paint1_vertical)" fill-opacity="0.1"/>
  <path d="M0 20H40V21H0V20Z" fill="url(#paint2_vertical)" fill-opacity="0.1"/>
  <path d="M0 30H40V31H0V30Z" fill="url(#paint3_vertical)" fill-opacity="0.1"/>
  <path d="M0 40H40V41H0V40Z" fill="url(#paint4_vertical)" fill-opacity="0.1"/>
  <path d="M0 0H1V40H0V0Z" fill="url(#paint5_horizontal)" fill-opacity="0.1"/>
  <path d="M10 0H11V40H10V0Z" fill="url(#paint6_horizontal)" fill-opacity="0.1"/>
  <path d="M20 0H21V40H20V0Z" fill="url(#paint7_horizontal)" fill-opacity="0.1"/>
  <path d="M30 0H31V40H30V0Z" fill="url(#paint8_horizontal)" fill-opacity="0.1"/>
  <path d="M40 0H41V40H40V0Z" fill="url(#paint9_horizontal)" fill-opacity="0.1"/>
  <defs>
    <linearGradient id="paint0_vertical" x1="0" y1="0" x2="0" y2="1" gradientUnits="userSpaceOnUse">
      <stop stop-color="currentColor"/>
      <stop offset="1" stop-color="currentColor" stop-opacity="0"/>
    </linearGradient>
    <linearGradient id="paint1_vertical" x1="0" y1="0" x2="0" y2="1" gradientUnits="userSpaceOnUse">
      <stop stop-color="currentColor"/>
      <stop offset="1" stop-color="currentColor" stop-opacity="0"/>
    </linearGradient>
    <linearGradient id="paint2_vertical" x1="0" y1="0" x2="0" y2="1" gradientUnits="userSpaceOnUse">
      <stop stop-color="currentColor"/>
      <stop offset="1" stop-color="currentColor" stop-opacity="0"/>
    </linearGradient>
    <linearGradient id="paint3_vertical" x1="0" y1="0" x2="0" y2="1" gradientUnits="userSpaceOnUse">
      <stop stop-color="currentColor"/>
      <stop offset="1" stop-color="currentColor" stop-opacity="0"/>
    </linearGradient>
    <linearGradient id="paint4_vertical" x1="0" y1="0" x2="0" y2="1" gradientUnits="userSpaceOnUse">
      <stop stop-color="currentColor"/>
      <stop offset="1" stop-color="currentColor" stop-opacity="0"/>
    </linearGradient>
    <linearGradient id="paint5_horizontal" x1="0" y1="0" x2="1" y2="0" gradientUnits="userSpaceOnUse">
      <stop stop-color="currentColor"/>
      <stop offset="1" stop-color="currentColor" stop-opacity="0"/>
    </linearGradient>
    <linearGradient id="paint6_horizontal" x1="0" y1="0" x2="1" y2="0" gradientUnits="userSpaceOnUse">
      <stop stop-color="currentColor"/>
      <stop offset="1" stop-color="currentColor" stop-opacity="0"/>
    </linearGradient>
    <linearGradient id="paint7_horizontal" x1="0" y1="0" x2="1" y2="0" gradientUnits="userSpaceOnUse">
      <stop stop-color="currentColor"/>
      <stop offset="1" stop-color="currentColor" stop-opacity="0"/>
    </linearGradient>
    <linearGradient id="paint8_horizontal" x1="0" y1="0" x2="1" y2="0" gradientUnits="userSpaceOnUse">
      <stop stop-color="currentColor"/>
      <stop offset="1" stop-color="currentColor" stop-opacity="0"/>
    </linearGradient>
    <linearGradient id="paint9_horizontal" x1="0" y1="0" x2="1" y2="0" gradientUnits="userSpaceOnUse">
      <stop stop-color="currentColor"/>
      <stop offset="1" stop-color="currentColor" stop-opacity="0"/>
    </linearGradient>
  </defs>
</svg>
